<svg width="23" height="23" viewBox="0 0 23 23" fill="none" xmlns="http://www.w3.org/2000/svg">
<g clip-path="url(#clip0_0_20)">
<path d="M9.91087 10.858L9.91084 10.858L9.91714 10.8617L15.0192 13.8227C15.091 13.8848 15.1223 13.9664 15.1223 14.0042C15.1223 14.0534 15.1124 14.0894 15.1006 14.1129C15.0907 14.1328 15.0758 14.1518 15.0464 14.17L9.95937 17.1223C9.94398 17.1277 9.9297 17.1328 9.91719 17.1373C9.91253 17.139 9.90812 17.1405 9.90399 17.142C9.87446 17.1526 9.85635 17.1588 9.84111 17.1633C9.82637 17.1678 9.81776 17.1696 9.81149 17.1704C9.8052 17.169 9.79617 17.1668 9.78471 17.1633C9.76199 17.1565 9.73946 17.148 9.7215 17.1401C9.63425 17.0812 9.61395 17.0105 9.61395 16.9834V11.0251C9.61395 10.9704 9.62751 10.9363 9.63799 10.9191C9.64744 10.9037 9.65658 10.8974 9.66632 10.8935L9.70351 10.8786L9.73787 10.858C9.78783 10.828 9.81454 10.8261 9.82437 10.8261C9.8342 10.8261 9.86091 10.828 9.91087 10.858ZM21.3515 6.4834H21.9575L21.8423 5.88839C21.5467 4.36091 20.9899 3.58553 20.3758 2.97151C19.9838 2.57945 19.5038 2.16177 18.7228 1.85197C17.9523 1.54632 16.9222 1.3584 15.439 1.3584H14.7515H13.8934L14.3164 2.1049L16.6539 6.2299L16.7976 6.4834H17.089H21.3515ZM13.5365 1.61189L13.3928 1.3584H13.1015H8.28895H7.60145H6.74342L7.16644 2.1049L9.50394 6.2299L9.64759 6.4834H9.93895H15.439H16.297L15.874 5.73689L13.5365 1.61189ZM6.56922 1.79421L6.38799 1.47612L6.03002 1.55283C4.63377 1.85203 3.90949 2.41409 3.35207 2.97151C2.73805 3.58553 2.1812 4.36091 1.88556 5.88839L1.7704 6.4834H2.37645H8.38062H9.24097L8.81505 5.73587L6.56922 1.79421ZM2.23895 6.8584H1.73895V7.3584V15.0584C1.73895 16.5199 1.92718 17.549 2.232 18.3238C2.54061 19.1081 2.95642 19.5996 3.35207 19.9953C3.74412 20.3873 4.22413 20.805 5.0051 21.1148C5.77559 21.4205 6.80573 21.6084 8.28895 21.6084H15.439C16.9004 21.6084 17.9296 21.4202 18.7043 21.1153C19.4887 20.8067 19.9802 20.3909 20.3758 19.9953C20.7679 19.6032 21.1856 19.1232 21.4954 18.3422C21.801 17.5718 21.989 16.5416 21.989 15.0584V7.3584V6.8584H21.489H2.23895ZM15.3931 0.983398C16.8908 0.983398 17.9394 1.16254 18.738 1.45674C19.5255 1.74689 20.0971 2.15889 20.6313 2.67051C21.1674 3.22928 21.5906 3.8131 21.8859 4.60063C22.185 5.39825 22.364 6.43442 22.364 7.9084V14.9667C22.364 16.4644 22.1848 17.5131 21.8906 18.3116C21.5998 19.1009 21.1866 19.6732 20.6735 20.2085C20.1414 20.7397 19.5595 21.1631 18.7649 21.4591C17.9612 21.7586 16.9132 21.9376 15.439 21.9376H8.33479C6.83708 21.9376 5.78846 21.7584 4.98993 21.4642C4.20065 21.1734 3.6283 20.7603 3.09309 20.2471C2.56178 19.7151 2.13841 19.1331 1.84239 18.3385C1.54296 17.5348 1.36395 16.4868 1.36395 15.0126V7.9084C1.36395 6.43441 1.5429 5.39746 1.83692 4.60465C2.12705 3.82234 2.53925 3.25045 3.05106 2.71605C3.60984 2.17994 4.19365 1.75678 4.98118 1.46146C5.77881 1.16235 6.81498 0.983398 8.28895 0.983398H15.3931Z" fill="#262626" stroke="black"/>
</g>
<defs>
<clipPath id="clip0_0_20">
<rect width="22" height="22" fill="white" transform="translate(0.863953 0.483398)"/>
</clipPath>
</defs>
</svg>
