<svg width="25" height="25" viewBox="0 0 25 25" fill="none" xmlns="http://www.w3.org/2000/svg">
<path fill-rule="evenodd" clip-rule="evenodd" d="M17.114 0.733398C20.8419 0.733398 23.864 3.75548 23.864 7.4834V17.4834C23.864 21.2113 20.8419 24.2334 17.114 24.2334H7.11395C3.38603 24.2334 0.363953 21.2113 0.363953 17.4834V7.4834C0.363953 3.75548 3.38603 0.733398 7.11395 0.733398H17.114ZM17.114 2.2334H7.11395C4.21446 2.2334 1.86395 4.5839 1.86395 7.4834V17.4834C1.86395 20.3829 4.21446 22.7334 7.11395 22.7334H17.114C20.0134 22.7334 22.364 20.3829 22.364 17.4834V7.4834C22.364 4.5839 20.0134 2.2334 17.114 2.2334ZM12.8571 6.38163C12.8074 6.01555 12.4936 5.7334 12.114 5.7334L12.0122 5.74024L11.9146 5.76019C11.5971 5.84751 11.364 6.13822 11.364 6.4834V11.7324L6.11395 11.7334L6.01218 11.7402C5.64611 11.7899 5.36395 12.1037 5.36395 12.4834L5.3708 12.5852C5.42046 12.9512 5.73426 13.2334 6.11395 13.2334L11.364 13.2324V18.4834L11.3708 18.5852C11.4205 18.9512 11.7343 19.2334 12.114 19.2334L12.2157 19.2266C12.5818 19.1769 12.864 18.8631 12.864 18.4834V13.2334H18.114L18.2157 13.2266C18.5818 13.1769 18.864 12.8631 18.864 12.4834L18.8571 12.3816C18.8074 12.0156 18.4936 11.7334 18.114 11.7334H12.864V6.4834L12.8571 6.38163Z" fill="#262626"/>
<path d="M12.114 5.7334V5.58306L12.1039 5.58374L12.114 5.7334ZM12.8571 6.38163L13.0071 6.37154L13.0057 6.36146L12.8571 6.38163ZM12.0122 5.74024L12.0021 5.59058L11.992 5.59126L11.9822 5.59328L12.0122 5.74024ZM11.9146 5.76019L11.8845 5.6129L11.8748 5.61556L11.9146 5.76019ZM11.364 11.7324L11.364 11.8824L11.514 11.8824V11.7324H11.364ZM6.11395 11.7334L6.11392 11.5831L6.10388 11.5837L6.11395 11.7334ZM6.01218 11.7402L6.00209 11.5902L5.99202 11.5916L6.01218 11.7402ZM5.36395 12.4834H5.21361L5.21429 12.4935L5.36395 12.4834ZM5.3708 12.5852L5.22079 12.5953L5.22216 12.6053L5.3708 12.5852ZM6.11395 13.2334V13.3834H6.11398L6.11395 13.2334ZM11.364 13.2324H11.514V13.0824L11.3639 13.0824L11.364 13.2324ZM11.364 18.4834H11.2136L11.2143 18.4935L11.364 18.4834ZM11.3708 18.5852L11.2208 18.5953L11.2222 18.6053L11.3708 18.5852ZM12.114 19.2334V19.3837L12.124 19.3831L12.114 19.2334ZM12.2157 19.2266L12.2258 19.3766L12.2359 19.3752L12.2157 19.2266ZM12.864 13.2334V13.0834H12.714V13.2334H12.864ZM18.114 13.2334V13.3837L18.124 13.3831L18.114 13.2334ZM18.2157 13.2266L18.2258 13.3766L18.2359 13.3752L18.2157 13.2266ZM18.864 12.4834H19.0143L19.0136 12.4733L18.864 12.4834ZM18.8571 12.3816L19.0071 12.3715L19.0057 12.3615L18.8571 12.3816ZM12.864 11.7334H12.714V11.8834H12.864V11.7334ZM12.864 6.4834H13.0143L13.0136 6.47333L12.864 6.4834ZM24.014 7.4834C24.014 3.67263 20.9247 0.583398 17.114 0.583398V0.883398C20.759 0.883398 23.714 3.83832 23.714 7.4834H24.014ZM24.014 17.4834V7.4834H23.714V17.4834H24.014ZM17.114 24.3834C20.9247 24.3834 24.014 21.2942 24.014 17.4834H23.714C23.714 21.1285 20.759 24.0834 17.114 24.0834V24.3834ZM7.11395 24.3834H17.114V24.0834H7.11395V24.3834ZM0.213953 17.4834C0.213953 21.2942 3.30319 24.3834 7.11395 24.3834V24.0834C3.46887 24.0834 0.513953 21.1285 0.513953 17.4834H0.213953ZM0.213953 7.4834V17.4834H0.513953V7.4834H0.213953ZM7.11395 0.583398C3.30319 0.583398 0.213953 3.67263 0.213953 7.4834H0.513953C0.513953 3.83832 3.46887 0.883398 7.11395 0.883398V0.583398ZM17.114 0.583398H7.11395V0.883398H17.114V0.583398ZM7.11395 2.3834H17.114V2.0834H7.11395V2.3834ZM2.01395 7.4834C2.01395 4.66675 4.2973 2.3834 7.11395 2.3834V2.0834C4.13161 2.0834 1.71395 4.50106 1.71395 7.4834H2.01395ZM2.01395 17.4834V7.4834H1.71395V17.4834H2.01395ZM7.11395 22.5834C4.2973 22.5834 2.01395 20.3001 2.01395 17.4834H1.71395C1.71395 20.4657 4.13161 22.8834 7.11395 22.8834V22.5834ZM17.114 22.5834H7.11395V22.8834H17.114V22.5834ZM22.214 17.4834C22.214 20.3001 19.9306 22.5834 17.114 22.5834V22.8834C20.0963 22.8834 22.514 20.4657 22.514 17.4834H22.214ZM22.214 7.4834V17.4834H22.514V7.4834H22.214ZM17.114 2.3834C19.9306 2.3834 22.214 4.66675 22.214 7.4834H22.514C22.514 4.50106 20.0963 2.0834 17.114 2.0834V2.3834ZM12.114 5.8834C12.4176 5.8834 12.6688 6.10908 12.7085 6.40179L13.0057 6.36146C12.9461 5.92203 12.5697 5.5834 12.114 5.5834V5.8834ZM12.0223 5.88991L12.124 5.88306L12.1039 5.58374L12.0021 5.59058L12.0223 5.88991ZM11.9446 5.90715L12.0422 5.88721L11.9822 5.59328L11.8845 5.61323L11.9446 5.90715ZM11.514 6.4834C11.514 6.20747 11.7003 5.97469 11.9544 5.90482L11.8748 5.61556C11.4939 5.72032 11.214 6.06897 11.214 6.4834H11.514ZM11.514 11.7324V6.4834H11.214V11.7324H11.514ZM6.11398 11.8834L11.364 11.8824L11.3639 11.5824L6.11392 11.5834L6.11398 11.8834ZM6.02225 11.8899L6.12402 11.8831L6.10388 11.5837L6.00211 11.5906L6.02225 11.8899ZM5.51395 12.4834C5.51395 12.1798 5.73963 11.9286 6.03235 11.8889L5.99202 11.5916C5.55258 11.6512 5.21395 12.0276 5.21395 12.4834H5.51395ZM5.52046 12.5751L5.51361 12.4733L5.21429 12.4935L5.22114 12.5952L5.52046 12.5751ZM6.11395 13.0834C5.81032 13.0834 5.55915 12.8577 5.51944 12.565L5.22216 12.6053C5.28178 13.0448 5.65819 13.3834 6.11395 13.3834V13.0834ZM11.3639 13.0824L6.11392 13.0834L6.11398 13.3834L11.364 13.3824L11.3639 13.0824ZM11.514 18.4834V13.2324H11.214V18.4834H11.514ZM11.5205 18.5751L11.5136 18.4733L11.2143 18.4935L11.2211 18.5952L11.5205 18.5751ZM12.114 19.0834C11.8103 19.0834 11.5591 18.8577 11.5194 18.565L11.2222 18.6053C11.2818 19.0448 11.6582 19.3834 12.114 19.3834V19.0834ZM12.2057 19.0769L12.1039 19.0837L12.124 19.3831L12.2258 19.3762L12.2057 19.0769ZM12.714 18.4834C12.714 18.787 12.4883 19.0382 12.1956 19.0779L12.2359 19.3752C12.6753 19.3156 13.014 18.9392 13.014 18.4834H12.714ZM12.714 13.2334V18.4834H13.014V13.2334H12.714ZM18.114 13.0834H12.864V13.3834H18.114V13.0834ZM18.2057 13.0769L18.1039 13.0837L18.124 13.3831L18.2258 13.3762L18.2057 13.0769ZM18.714 12.4834C18.714 12.787 18.4883 13.0382 18.1956 13.0779L18.2359 13.3752C18.6753 13.3156 19.014 12.9392 19.014 12.4834H18.714ZM18.7074 12.3917L18.7143 12.4935L19.0136 12.4733L19.0068 12.3716L18.7074 12.3917ZM18.114 11.8834C18.4176 11.8834 18.6688 12.1091 18.7085 12.4018L19.0057 12.3615C18.9461 11.922 18.5697 11.5834 18.114 11.5834V11.8834ZM12.864 11.8834H18.114V11.5834H12.864V11.8834ZM12.714 6.4834V11.7334H13.014V6.4834H12.714ZM12.7074 6.3917L12.7143 6.49347L13.0136 6.47333L13.0068 6.37156L12.7074 6.3917Z" fill="black"/>
</svg>
