<svg width="22" height="24" viewBox="0 0 22 24" fill="none" xmlns="http://www.w3.org/2000/svg">
<path fill-rule="evenodd" clip-rule="evenodd" d="M11.7 1.01079L21.7 10.5227C21.8919 10.7052 22 10.955 22 11.2158V22.9385C22 23.2065 21.7761 23.4237 21.5 23.4237H14.5C14.2239 23.4237 14 23.2065 14 22.9385V17.6013C14 16.0508 12.7511 14.7834 11.1763 14.6949L11 14.6899C9.40232 14.6899 8.09634 15.9019 8.00509 17.4302L8 17.6013V22.9385C7.99998 23.2065 7.77613 23.4237 7.5 23.4238L0.5 23.424C0.25454 23.4241 0.0503841 23.2524 0.00803813 23.0261L0 22.9388V11.2158C0 10.955 0.108129 10.7052 0.300019 10.5227L10.3 1.01079C10.6889 0.640933 11.3111 0.640933 11.7 1.01079Z" fill="#262626"/>
</svg>
