<svg width="18" height="18" viewBox="0 0 18 18" fill="none" xmlns="http://www.w3.org/2000/svg">
<path d="M7.33333 15.0751C8.9604 15.0748 10.5406 14.5316 11.8223 13.5321L15.8519 17.5505L17.1481 16.2579L13.1184 12.2396C14.1213 10.9613 14.6663 9.38524 14.6667 7.76232C14.6667 3.73024 11.3768 0.449554 7.33333 0.449554C3.28992 0.449554 0 3.73024 0 7.76232C0 11.7944 3.28992 15.0751 7.33333 15.0751ZM7.33333 2.27775C10.3666 2.27775 12.8333 4.73758 12.8333 7.76232C12.8333 10.7871 10.3666 13.2469 7.33333 13.2469C4.30008 13.2469 1.83333 10.7871 1.83333 7.76232C1.83333 4.73758 4.30008 2.27775 7.33333 2.27775Z" fill="#031101"/>
</svg>
