<svg width="20" height="20" viewBox="0 0 20 20" fill="none" xmlns="http://www.w3.org/2000/svg">
<path d="M14.0833 9.95833V2.16667C14.0833 0.958333 13.125 0 11.9167 0H4.16667C2.95833 0 2 0.958333 2 2.16667V9.95833C2 11.1667 2.95833 12.125 4.16667 12.125H11.9583C13.125 12.0833 14.0833 11.125 14.0833 9.95833ZM15.9167 3.83333V10.5417C15.9167 12.4167 14.375 13.9583 12.5 13.9583H5.79167C5.54167 13.9583 5.41667 14.25 5.58333 14.4167C6 14.875 6.58333 15.1667 7.29167 15.1667H12.875C15.25 15.1667 17.1667 13.25 17.1667 10.875V5.29167C17.1667 4.625 16.875 4 16.4167 3.58333C16.2083 3.41667 15.9167 3.58333 15.9167 3.83333Z" fill="white"/>
</svg>
