<svg width="20" height="20" viewBox="0 0 20 20" fill="none" xmlns="http://www.w3.org/2000/svg">
<path d="M14.5 12.375V4.58332C14.5 3.37499 13.5417 2.41666 12.3334 2.41666H4.58335C3.37502 2.41666 2.41669 3.37499 2.41669 4.58332V12.375C2.41669 13.5833 3.37502 14.5417 4.58335 14.5417H12.375C13.5417 14.5 14.5 13.5417 14.5 12.375ZM16.3334 6.24999V12.9583C16.3334 14.8333 14.7917 16.375 12.9167 16.375H6.20835C5.95835 16.375 5.83335 16.6667 6.00002 16.8333C6.41669 17.2917 7.00002 17.5833 7.70835 17.5833H13.2917C15.6667 17.5833 17.5834 15.6667 17.5834 13.2917V7.70832C17.5834 7.04166 17.2917 6.41666 16.8334 5.99999C16.625 5.83332 16.3334 5.99999 16.3334 6.24999Z" fill="white"/>
</svg>
