<svg width="19" height="12" viewBox="0 0 19 12" fill="none" xmlns="http://www.w3.org/2000/svg">
<path fill-rule="evenodd" clip-rule="evenodd" d="M1.45333 7.33332H2.49333C3.06771 7.33332 3.53333 7.78104 3.53333 8.33332V10.3333C3.53333 10.8856 3.06771 11.3333 2.49333 11.3333H1.45333C0.878954 11.3333 0.41333 10.8856 0.41333 10.3333V8.33332C0.41333 7.78104 0.878954 7.33332 1.45333 7.33332ZM6.30666 5.33332H7.34666C7.92104 5.33332 8.38666 5.78104 8.38666 6.33332V10.3333C8.38666 10.8856 7.92104 11.3333 7.34666 11.3333H6.30666C5.73229 11.3333 5.26666 10.8856 5.26666 10.3333V6.33332C5.26666 5.78104 5.73229 5.33332 6.30666 5.33332ZM11.16 2.99999H12.2C12.7744 2.99999 13.24 3.44771 13.24 3.99999V10.3333C13.24 10.8856 12.7744 11.3333 12.2 11.3333H11.16C10.5856 11.3333 10.12 10.8856 10.12 10.3333V3.99999C10.12 3.44771 10.5856 2.99999 11.16 2.99999ZM16.0133 0.666656H17.0533C17.6277 0.666656 18.0933 1.11437 18.0933 1.66666V10.3333C18.0933 10.8856 17.6277 11.3333 17.0533 11.3333H16.0133C15.439 11.3333 14.9733 10.8856 14.9733 10.3333V1.66666C14.9733 1.11437 15.439 0.666656 16.0133 0.666656Z" fill="#060606"/>
</svg>
