<svg width="24" height="25" viewBox="0 0 24 25" fill="none" xmlns="http://www.w3.org/2000/svg">
<path fill-rule="evenodd" clip-rule="evenodd" d="M19.5 10.4834C19.5 5.09862 15.1348 0.733398 9.75 0.733398C4.36522 0.733398 0 5.09862 0 10.4834C0 15.8682 4.36522 20.2334 9.75 20.2334C12.1726 20.2334 14.3888 19.3498 16.094 17.8874L22.0836 23.8777L22.1677 23.9503C22.4614 24.1682 22.878 24.144 23.1443 23.8777C23.4372 23.5848 23.4372 23.1099 23.1443 22.817L17.154 16.8274C18.6164 15.1222 19.5 12.906 19.5 10.4834ZM1.5 10.4834C1.5 5.92705 5.19365 2.2334 9.75 2.2334C14.3063 2.2334 18 5.92705 18 10.4834C18 15.0397 14.3063 18.7334 9.75 18.7334C5.19365 18.7334 1.5 15.0397 1.5 10.4834Z" fill="#262626"/>
</svg>
