<svg width="17" height="12" viewBox="0 0 17 12" fill="none" xmlns="http://www.w3.org/2000/svg">
<path fill-rule="evenodd" clip-rule="evenodd" d="M8.26354 2.60802C10.5681 2.60811 12.7845 3.45955 14.4547 4.98635C14.5804 5.10422 14.7815 5.10274 14.9053 4.98302L16.1076 3.81635C16.1703 3.75563 16.2053 3.67338 16.2047 3.58779C16.2042 3.50221 16.1682 3.42036 16.1048 3.36035C11.7211 -0.679198 4.8053 -0.679198 0.421596 3.36035C0.358095 3.42032 0.322065 3.50215 0.321479 3.58773C0.320894 3.67331 0.355801 3.75558 0.418476 3.81635L1.62106 4.98302C1.74485 5.10292 1.94604 5.10441 2.07173 4.98635C3.74213 3.45945 5.95879 2.60801 8.26354 2.60802ZM8.26354 6.40368C9.52973 6.40361 10.7507 6.85614 11.6893 7.67335C11.8162 7.78933 12.0162 7.78682 12.14 7.66768L13.3408 6.50102C13.4041 6.43982 13.4392 6.3568 13.4382 6.27054C13.4373 6.18427 13.4005 6.10196 13.336 6.04202C10.4778 3.48563 6.05167 3.48563 3.19354 6.04202C3.12898 6.10196 3.09215 6.18432 3.0913 6.27061C3.09045 6.3569 3.12566 6.43991 3.18904 6.50102L4.38954 7.66768C4.51329 7.78682 4.71326 7.78933 4.84021 7.67335C5.77816 6.85668 6.99819 6.40419 8.26354 6.40368ZM10.5713 9.18802C10.6355 9.12741 10.6709 9.04401 10.6691 8.9575C10.6672 8.87099 10.6283 8.78905 10.5616 8.73102C9.235 7.65213 7.29208 7.65213 5.96549 8.73102C5.8987 8.789 5.85976 8.87092 5.85785 8.95743C5.85595 9.04394 5.89126 9.12737 5.95544 9.18802L8.03301 11.2037C8.0939 11.2629 8.17692 11.2963 8.26354 11.2963C8.35017 11.2963 8.43318 11.2629 8.49408 11.2037L10.5713 9.18802Z" fill="#060606"/>
</svg>
